<svg width="102" height="87" viewBox="0 0 102 87" fill="none" xmlns="http://www.w3.org/2000/svg">
    <g clip-path="url(#clip0_354_14791)">
        <path
            d="M35.1578 0.978992C26.5006 -1.50179 19.1059 1.45883 17.8624 2.00585C9.5625 5.65744 6.03195 12.6247 5.18385 14.4289C5.58884 14.0595 5.9986 13.6708 6.40835 13.2629C6.55129 13.1238 6.68946 12.9798 6.82763 12.8407C7.88537 11.7994 13.9411 6.05091 22.6746 6.72749C24.0849 6.83785 27.7203 7.2889 31.4557 9.7217C37.1637 13.4405 40.5418 19.9951 40.5179 26.7321C40.5418 33.469 37.1589 40.0285 31.4557 43.7424C23.132 49.0927 13.4885 46.9478 7.59949 40.7146C6.99916 40.7722 6.39882 40.8298 5.79848 40.8922C11.6732 50.4842 23.2988 56.0456 35.1578 52.4899C46.1592 49.3374 54.0207 38.2387 53.8683 26.7321C54.0255 15.2255 46.1592 4.12675 35.1578 0.974194V0.978992Z"
            fill="#001571" />
        <path
            d="M42.0426 80.9109C40.961 79.7401 40.0701 78.4302 39.3649 76.9954C36.9016 78.5885 34.081 79.9608 32.4944 80.3735C30.1312 80.9877 27.868 80.9589 25.8812 80.3351L38.6693 58.6511C34.3621 55.393 29.8644 54.1118 24.4899 55.5033C16.4235 57.5954 11.5255 66.2998 13.6029 74.4235C14.2842 77.0866 15.542 79.361 17.2144 81.1748C21.8551 86.2084 29.0925 86.7602 33.8952 85.5222C36.6396 84.8168 38.8408 83.4541 40.1368 82.6576C40.9277 82.1681 41.6424 81.6691 42.2999 81.17C42.2141 81.0837 42.1284 81.0021 42.0426 80.9109ZM18.9773 73.0319C17.6146 67.7009 20.1875 62.1347 25.6477 60.7192C27.4392 60.2538 29.7691 60.5273 31.4462 61.3142L21.7884 77.9023C20.4353 76.6787 19.4823 74.9993 18.9821 73.0319H18.9773Z"
            fill="#001571" />
        <path
            d="M66.6564 75.1432C63.9358 77.1825 60.1146 79.1403 58.1564 79.6489C55.7932 80.2631 53.53 80.2343 51.5432 79.6105L64.3313 57.9265C60.0241 54.6684 55.5263 53.3872 50.1519 54.7787C42.0855 56.8708 37.1875 65.5752 39.2649 73.6989C39.9462 76.362 41.204 78.6364 42.8764 80.4502C47.5171 85.4838 54.7545 86.0356 59.5572 84.7976C62.3016 84.0922 64.5028 82.7295 65.7988 81.9329C66.0942 81.7506 66.3753 81.5635 66.6564 81.3811V75.148V75.1432ZM44.6393 72.3025C43.2766 66.9715 45.8495 61.4053 51.3097 59.9898C53.1012 59.5244 55.4311 59.7979 57.1082 60.5848L47.4504 77.1729C46.0973 75.9493 45.1443 74.2699 44.6441 72.3025H44.6393Z"
            fill="#001571" />
        <path
            d="M89.6931 74.3466C87.9254 71.8034 85.91 69.1787 82.1222 68.3294C89.0118 66.8898 92.7138 60.6327 92.7234 53.8669H86.6676C86.6581 60.9686 82.5367 65.5319 75.4804 65.7046H73.7985V53.8669H67.657V83.7467H73.7985V71.0405H75.5661C80.6118 71.2084 82.8845 73.6652 85.4098 77.7342C86.7867 79.9511 90.9414 84.7447 94.7483 84.5144C98.984 84.2553 101.624 77.6383 102.01 76.645C101.638 76.9521 101.266 77.2592 100.89 77.5711C99.6272 78.334 97.9453 79.0106 96.2635 79.0106C93.1522 79.0106 91.4703 76.8081 89.7026 74.3514L89.6931 74.3466Z"
            fill="#001571" />
        <path
            d="M10.4011 30.4458C10.4487 26.5831 10.4964 22.7252 10.544 18.8625C10.382 15.374 10.2152 11.8856 10.0533 8.40192C10.0485 4.03057 6.537 0.494141 2.206 0.494141H0C0.257287 27.5908 0.519339 54.6874 0.776626 81.784C0.743273 82.1487 0.571749 84.2888 2.05353 85.7523C3.86407 87.5517 7.1278 87.3214 8.88593 85.5748C10.1438 84.3272 10.2677 82.6621 10.2867 82.1295C10.2105 69.0874 10.1295 56.0454 10.0533 43.0033C10.1676 38.8191 10.2867 34.63 10.4011 30.4458Z"
            fill="#001571" />
        <path
            d="M8.59053 81.9089C8.59053 83.7515 7.10398 85.2486 5.27439 85.2486C3.44479 85.2486 1.95824 83.7515 1.95824 81.9089C1.95824 80.0663 4.44535 77.168 5.27439 75.8677C6.10342 77.168 8.59053 80.0663 8.59053 81.9089Z"
            fill="#CADFFF" />
        <path
            d="M5.26962 85.3541C3.38285 85.3541 1.84866 83.809 1.84866 81.9088C1.84866 80.4453 3.3352 78.3964 4.41676 76.9041C4.72646 76.477 4.99804 76.1027 5.17909 75.8148C5.19815 75.786 5.2315 75.7668 5.26486 75.7668C5.29821 75.7668 5.33156 75.786 5.35062 75.8148C5.53644 76.1075 5.80325 76.477 6.11771 76.9041C7.19927 78.4012 8.68582 80.4501 8.68582 81.9088C8.68582 83.809 7.15163 85.3541 5.26486 85.3541H5.26962ZM5.26962 76.0595C5.08857 76.3331 4.85034 76.6594 4.58352 77.0288C3.51626 78.5019 2.05353 80.5173 2.05353 81.9136C2.05353 83.6986 3.4972 85.1477 5.26962 85.1477C7.04204 85.1477 8.48571 83.6938 8.48571 81.9136C8.48571 80.5173 7.02298 78.5019 5.95572 77.0288C5.6889 76.6594 5.45067 76.3331 5.26962 76.0595Z"
            fill="#CADFFF" />
    </g>
    <defs>
        <clipPath id="clip0_354_14791">
            <rect width="102" height="87" fill="white" />
        </clipPath>
    </defs>
</svg>
